<svg width="658" height="321" viewBox="0 0 658 321" fill="none" xmlns="http://www.w3.org/2000/svg">
<path d="M90.2591 183.583H90.6758C93.1758 183.583 95.0508 185.458 95.0508 187.958V188.375C95.0508 190.875 93.1758 192.75 90.6758 192.75H90.2591C87.9674 192.75 86.3008 194 86.3008 196.5V204.833C86.3008 207.333 84.6341 209 82.1341 209H31.9258C29.4258 209 27.9674 207.542 27.9674 205.042V204.625C27.9674 202.125 29.4258 200.667 31.9258 200.667H32.3424C35.1549 200.667 36.3008 199.521 36.3008 196.708V137.958C36.3008 135.146 35.1549 134 32.3424 134H31.9258C29.4258 134 27.9674 132.542 27.9674 130.042V129.625C27.9674 127.125 29.4258 125.667 31.9258 125.667H82.1341C84.6341 125.667 86.3008 127.333 86.3008 129.833V138.375C86.3008 140.875 84.8424 142.333 82.3425 142.333H81.9258C79.4258 142.333 77.9675 140.875 77.9675 138.375V138.167C77.9675 135.771 76.1966 134 73.8008 134H48.8008C46.4049 134 44.6341 135.771 44.6341 138.167V154.833C44.6341 157.229 46.4049 159 48.8008 159H57.1341C59.53 159 61.3008 157.229 61.3008 154.833V154.625C61.3008 152.125 62.7591 150.667 65.2591 150.667H65.6758C68.1758 150.667 69.6341 152.125 69.6341 154.625V171.708C69.6341 174.208 68.1758 175.667 65.6758 175.667H65.2591C62.7591 175.667 61.3008 174.208 61.3008 171.708V171.5C61.3008 169.104 59.53 167.333 57.1341 167.333H48.8008C46.4049 167.333 44.6341 169.104 44.6341 171.5V196.5C44.6341 198.896 46.4049 200.667 48.8008 200.667H73.8008C76.1966 200.667 77.9675 198.896 77.9675 196.5V196.292C77.9675 193.792 79.4258 192.333 81.9258 192.333H82.1341C84.6341 192.333 85.8841 190.667 85.8841 188.375V187.958C85.8841 185.458 87.7591 183.583 90.2591 183.583ZM139.353 163.167V171.5C139.353 174 141.02 175.25 143.311 175.25H143.728C146.228 175.25 148.103 177.125 148.103 179.625V180.042C148.103 182.542 149.145 183.583 151.645 183.583H152.061C154.561 183.583 156.436 185.458 156.436 187.958V188.375C156.436 190.667 157.686 192.333 160.186 192.333H160.395C162.895 192.333 164.353 193.792 164.353 196.292V196.5C164.353 198.896 166.124 200.667 168.52 200.667H168.728C171.228 200.667 172.686 202.125 172.686 204.625V205.042C172.686 207.542 171.228 209 168.728 209H151.645C149.145 209 147.686 207.542 147.686 205.042V204.625C147.686 202.125 149.145 200.667 151.645 200.667H151.853C154.249 200.667 156.02 198.896 156.02 196.5C156.02 194 154.353 192.75 152.061 192.75H151.645C149.145 192.75 147.27 190.875 147.27 188.375V187.958C147.27 185.458 146.228 184.417 143.728 184.417H143.311C140.811 184.417 138.936 182.542 138.936 180.042V179.625C138.936 177.333 137.686 175.667 135.186 175.667C132.686 175.667 131.436 177.333 131.436 179.625V180.042C131.436 182.542 129.561 184.417 127.061 184.417H126.645C124.145 184.417 123.103 185.458 123.103 187.958V188.375C123.103 190.875 121.228 192.75 118.728 192.75H118.311C116.02 192.75 114.353 194 114.353 196.5C114.353 198.896 116.124 200.667 118.52 200.667H118.728C121.228 200.667 122.686 202.125 122.686 204.625V205.042C122.686 207.542 121.228 209 118.728 209H101.645C99.1445 209 97.6862 207.542 97.6862 205.042V204.625C97.6862 202.125 99.1445 200.667 101.645 200.667H101.853C104.249 200.667 106.02 198.896 106.02 196.5V196.292C106.02 193.792 107.478 192.333 109.978 192.333H110.186C112.686 192.333 113.936 190.667 113.936 188.375V187.958C113.936 185.458 115.811 183.583 118.311 183.583H118.728C121.228 183.583 122.27 182.542 122.27 180.042V179.625C122.27 177.125 124.145 175.25 126.645 175.25H127.061C129.353 175.25 131.02 174 131.02 171.5V163.167C131.02 160.667 129.353 159.417 127.061 159.417H126.645C124.145 159.417 122.27 157.542 122.27 155.042V154.625C122.27 152.125 121.228 151.083 118.728 151.083H118.311C115.811 151.083 113.936 149.208 113.936 146.708V146.292C113.936 144 112.686 142.333 110.186 142.333H109.978C107.478 142.333 106.02 140.875 106.02 138.375V138.167C106.02 135.771 104.249 134 101.853 134H101.645C99.1445 134 97.6862 132.542 97.6862 130.042V129.625C97.6862 127.125 99.1445 125.667 101.645 125.667H118.728C121.228 125.667 122.686 127.125 122.686 129.625V130.042C122.686 132.542 121.228 134 118.728 134H118.52C116.124 134 114.353 135.771 114.353 138.167C114.353 140.667 116.02 141.917 118.311 141.917H118.728C121.228 141.917 123.103 143.792 123.103 146.292V146.708C123.103 149.208 124.145 150.25 126.645 150.25H127.061C129.561 150.25 131.436 152.125 131.436 154.625V155.042C131.436 157.333 132.686 159 135.186 159C137.686 159 138.936 157.333 138.936 155.042V154.625C138.936 152.125 140.811 150.25 143.311 150.25H143.728C146.228 150.25 147.27 149.208 147.27 146.708V146.292C147.27 143.792 149.145 141.917 151.645 141.917H152.061C154.353 141.917 156.02 140.667 156.02 138.167C156.02 135.771 154.249 134 151.853 134H151.645C149.145 134 147.686 132.542 147.686 130.042V129.625C147.686 127.125 149.145 125.667 151.645 125.667H168.728C171.228 125.667 172.686 127.125 172.686 129.625V130.042C172.686 132.542 171.228 134 168.728 134H168.52C166.124 134 164.353 135.771 164.353 138.167V138.375C164.353 140.875 162.895 142.333 160.395 142.333H160.186C157.686 142.333 156.436 144 156.436 146.292V146.708C156.436 149.208 154.561 151.083 152.061 151.083H151.645C149.145 151.083 148.103 152.125 148.103 154.625V155.042C148.103 157.542 146.228 159.417 143.728 159.417H143.311C141.02 159.417 139.353 160.667 139.353 163.167ZM255.081 225.667C257.581 225.667 259.039 227.125 259.039 229.625V230.042C259.039 232.542 257.581 234 255.081 234H237.997C235.497 234 234.039 232.542 234.039 230.042V229.833C234.039 227.438 232.268 225.667 229.872 225.667H221.331C218.831 225.667 217.372 224.208 217.372 221.708V221.5C217.372 219.104 215.602 217.333 213.206 217.333H212.997C210.497 217.333 209.039 215.875 209.039 213.375V209H196.331C193.831 209 192.372 207.542 192.372 205.042V204.833C192.372 202.333 190.706 201.083 188.414 201.083H187.997C185.497 201.083 183.622 199.208 183.622 196.708V196.292C183.622 194 182.372 192.333 179.872 192.333H179.664C177.164 192.333 175.706 190.875 175.706 188.375V146.292C175.706 143.792 177.164 142.333 179.664 142.333H179.872C182.372 142.333 183.622 140.667 183.622 138.375V137.958C183.622 135.458 185.497 133.583 187.997 133.583H188.414C190.706 133.583 192.372 132.333 192.372 129.833V129.625C192.372 127.125 193.831 125.667 196.331 125.667H230.081C232.581 125.667 234.039 127.125 234.039 129.625V129.833C234.039 132.333 235.706 133.583 237.997 133.583H238.414C240.914 133.583 242.789 135.458 242.789 137.958V138.375C242.789 140.667 244.039 142.333 246.539 142.333H246.747C249.247 142.333 250.706 143.792 250.706 146.292V188.375C250.706 190.875 249.247 192.333 246.747 192.333H246.539C244.039 192.333 242.789 194 242.789 196.292V196.708C242.789 199.208 240.914 201.083 238.414 201.083H237.997C235.706 201.083 234.039 202.333 234.039 204.833V205.042C234.039 207.542 232.581 209 230.081 209H217.372V213.167C217.372 215.563 219.143 217.333 221.539 217.333H230.081C232.581 217.333 234.039 218.792 234.039 221.292V221.5C234.039 223.896 235.81 225.667 238.206 225.667H255.081ZM196.539 200.667H229.872C232.372 200.667 233.622 199 233.622 196.708V196.292C233.622 193.792 235.497 191.917 237.997 191.917H238.414C240.706 191.917 242.372 190.667 242.372 188.167V146.5C242.372 144 240.706 142.75 238.414 142.75H237.997C235.497 142.75 233.622 140.875 233.622 138.375V137.958C233.622 135.667 232.372 134 229.872 134H196.539C194.039 134 192.789 135.667 192.789 137.958V138.375C192.789 140.875 190.914 142.75 188.414 142.75H187.997C185.706 142.75 184.039 144 184.039 146.5V188.167C184.039 190.667 185.706 191.917 187.997 191.917H188.414C190.914 191.917 192.789 193.792 192.789 196.292V196.708C192.789 199 194.039 200.667 196.539 200.667ZM329.747 125.667C332.247 125.667 333.706 127.125 333.706 129.625V130.042C333.706 132.542 332.247 134 329.747 134H329.331C326.518 134 325.372 135.146 325.372 137.958V188.375C325.372 190.875 323.914 192.333 321.414 192.333H321.206C318.706 192.333 317.456 194 317.456 196.292V196.708C317.456 199.208 315.581 201.083 313.081 201.083H312.664C310.372 201.083 308.706 202.333 308.706 204.833V205.042C308.706 207.542 307.247 209 304.747 209H287.664C285.164 209 283.706 207.542 283.706 205.042V204.833C283.706 202.333 282.039 201.083 279.747 201.083H279.331C276.831 201.083 274.956 199.208 274.956 196.708V196.292C274.956 194 273.706 192.333 271.206 192.333H270.997C268.497 192.333 267.039 190.875 267.039 188.375V137.958C267.039 135.146 265.893 134 263.081 134H262.664C260.164 134 258.706 132.542 258.706 130.042V129.625C258.706 127.125 260.164 125.667 262.664 125.667H279.747C282.247 125.667 283.706 127.125 283.706 129.625V130.042C283.706 132.542 282.247 134 279.747 134H279.331C276.518 134 275.372 135.146 275.372 137.958V188.167C275.372 190.667 277.039 191.917 279.331 191.917H279.747C282.247 191.917 284.122 193.792 284.122 196.292V196.708C284.122 199 285.372 200.667 287.872 200.667H304.539C307.039 200.667 308.289 199 308.289 196.708V196.292C308.289 193.792 310.164 191.917 312.664 191.917H313.081C315.372 191.917 317.039 190.667 317.039 188.167V137.958C317.039 135.146 315.893 134 313.081 134H312.664C310.164 134 308.706 132.542 308.706 130.042V129.625C308.706 127.125 310.164 125.667 312.664 125.667H329.747ZM361.693 196.708C361.693 199.521 362.839 200.667 365.651 200.667H366.068C368.568 200.667 370.026 202.125 370.026 204.625V205.042C370.026 207.542 368.568 209 366.068 209H348.984C346.484 209 345.026 207.542 345.026 205.042V204.625C345.026 202.125 346.484 200.667 348.984 200.667H349.401C352.214 200.667 353.359 199.521 353.359 196.708V137.958C353.359 135.146 352.214 134 349.401 134H348.984C346.484 134 345.026 132.542 345.026 130.042V129.625C345.026 127.125 346.484 125.667 348.984 125.667H366.068C368.568 125.667 370.026 127.125 370.026 129.625V130.042C370.026 132.542 368.568 134 366.068 134H365.651C362.839 134 361.693 135.146 361.693 137.958V196.708ZM426.971 125.667H427.388C429.888 125.667 431.346 127.125 431.346 129.625V146.708C431.346 149.208 429.888 150.667 427.388 150.667H426.971C424.471 150.667 423.013 149.208 423.013 146.708V146.5C423.013 144.104 421.242 142.333 418.846 142.333H418.638C416.138 142.333 414.68 140.875 414.68 138.375V138.167C414.68 135.771 412.909 134 410.513 134H393.846C391.451 134 389.68 135.771 389.68 138.167V154.833C389.68 157.229 391.451 159 393.846 159H402.388C404.888 159 406.346 160.458 406.346 162.958V163.167C406.346 165.562 408.117 167.333 410.513 167.333H419.055C421.555 167.333 423.013 168.792 423.013 171.292V171.5C423.013 173.896 424.784 175.667 427.18 175.667H427.388C429.888 175.667 431.346 177.125 431.346 179.625V196.708C431.346 199.208 429.888 200.667 427.388 200.667H427.18C424.784 200.667 423.013 202.437 423.013 204.833V205.042C423.013 207.542 421.555 209 419.055 209H401.971C399.471 209 398.013 207.542 398.013 205.042V204.833C398.013 202.437 396.242 200.667 393.846 200.667C391.451 200.667 389.68 202.437 389.68 204.833V205.042C389.68 207.542 388.221 209 385.721 209H385.305C382.805 209 381.346 207.542 381.346 205.042V187.958C381.346 185.458 382.805 184 385.305 184H385.721C388.221 184 389.68 185.458 389.68 187.958V188.167C389.68 190.562 391.451 192.333 393.846 192.333H394.055C396.555 192.333 398.013 193.792 398.013 196.292V196.5C398.013 198.896 399.784 200.667 402.18 200.667H418.846C421.242 200.667 423.013 198.896 423.013 196.5V179.833C423.013 177.437 421.242 175.667 418.846 175.667H410.305C407.805 175.667 406.346 174.208 406.346 171.708V171.5C406.346 169.104 404.576 167.333 402.18 167.333H393.638C391.138 167.333 389.68 165.875 389.68 163.375V163.167C389.68 160.771 387.909 159 385.513 159H385.305C382.805 159 381.346 157.542 381.346 155.042V137.958C381.346 135.458 382.805 134 385.305 134H385.513C387.909 134 389.68 132.229 389.68 129.833V129.625C389.68 127.125 391.138 125.667 393.638 125.667H410.721C413.221 125.667 414.68 127.125 414.68 129.625V129.833C414.68 132.229 416.451 134 418.846 134C421.242 134 423.013 132.229 423.013 129.833V129.625C423.013 127.125 424.471 125.667 426.971 125.667ZM459.333 196.708C459.333 199.521 460.479 200.667 463.292 200.667H463.708C466.208 200.667 467.667 202.125 467.667 204.625V205.042C467.667 207.542 466.208 209 463.708 209H446.625C444.125 209 442.667 207.542 442.667 205.042V204.625C442.667 202.125 444.125 200.667 446.625 200.667H447.042C449.854 200.667 451 199.521 451 196.708V137.958C451 135.146 449.854 134 447.042 134H446.625C444.125 134 442.667 132.542 442.667 130.042V129.625C442.667 127.125 444.125 125.667 446.625 125.667H463.708C466.208 125.667 467.667 127.125 467.667 129.625V130.042C467.667 132.542 466.208 134 463.708 134H463.292C460.479 134 459.333 135.146 459.333 137.958V196.708ZM539.82 125.667C542.32 125.667 543.987 127.333 543.987 129.833V138.375C543.987 140.875 542.529 142.333 540.029 142.333H539.612C537.112 142.333 535.654 140.875 535.654 138.375V138.167C535.654 135.771 533.883 134 531.487 134H519.82C517.424 134 515.654 135.771 515.654 138.167V196.5C515.654 198.896 517.424 200.667 519.82 200.667H528.362C530.862 200.667 532.32 202.125 532.32 204.625V205.042C532.32 207.542 530.862 209 528.362 209H494.612C492.112 209 490.654 207.542 490.654 205.042V204.625C490.654 202.125 492.112 200.667 494.612 200.667H503.154C505.549 200.667 507.32 198.896 507.32 196.5V138.167C507.32 135.771 505.549 134 503.154 134H491.487C489.091 134 487.32 135.771 487.32 138.167V138.375C487.32 140.875 485.862 142.333 483.362 142.333H482.945C480.445 142.333 478.987 140.875 478.987 138.375V129.833C478.987 127.333 480.654 125.667 483.154 125.667H539.82ZM617.638 183.583H618.055C620.555 183.583 622.43 185.458 622.43 187.958V188.375C622.43 190.875 620.555 192.75 618.055 192.75H617.638C615.346 192.75 613.68 194 613.68 196.5V204.833C613.68 207.333 612.013 209 609.513 209H559.305C556.805 209 555.346 207.542 555.346 205.042V204.625C555.346 202.125 556.805 200.667 559.305 200.667H559.721C562.534 200.667 563.68 199.521 563.68 196.708V137.958C563.68 135.146 562.534 134 559.721 134H559.305C556.805 134 555.346 132.542 555.346 130.042V129.625C555.346 127.125 556.805 125.667 559.305 125.667H609.513C612.013 125.667 613.68 127.333 613.68 129.833V138.375C613.68 140.875 612.221 142.333 609.721 142.333H609.305C606.805 142.333 605.346 140.875 605.346 138.375V138.167C605.346 135.771 603.576 134 601.18 134H576.18C573.784 134 572.013 135.771 572.013 138.167V154.833C572.013 157.229 573.784 159 576.18 159H584.513C586.909 159 588.68 157.229 588.68 154.833V154.625C588.68 152.125 590.138 150.667 592.638 150.667H593.055C595.555 150.667 597.013 152.125 597.013 154.625V171.708C597.013 174.208 595.555 175.667 593.055 175.667H592.638C590.138 175.667 588.68 174.208 588.68 171.708V171.5C588.68 169.104 586.909 167.333 584.513 167.333H576.18C573.784 167.333 572.013 169.104 572.013 171.5V196.5C572.013 198.896 573.784 200.667 576.18 200.667H601.18C603.576 200.667 605.346 198.896 605.346 196.5V196.292C605.346 193.792 606.805 192.333 609.305 192.333H609.513C612.013 192.333 613.263 190.667 613.263 188.375V187.958C613.263 185.458 615.138 183.583 617.638 183.583ZM142.298 283.583H142.715C145.215 283.583 147.09 285.458 147.09 287.958V288.375C147.09 290.875 145.215 292.75 142.715 292.75H142.298C139.798 292.75 138.757 293.792 138.757 296.292V296.708C138.757 299.208 136.882 301.083 134.382 301.083H133.965C131.673 301.083 130.007 302.333 130.007 304.833V305.042C130.007 307.542 128.548 309 126.048 309H100.632C98.1315 309 96.6732 307.542 96.6732 305.042V304.833C96.6732 302.333 95.0065 301.083 92.7148 301.083H92.2982C89.7982 301.083 87.9232 299.208 87.9232 296.708V296.292C87.9232 294 86.6732 292.333 84.1732 292.333H83.9648C81.4648 292.333 80.0065 290.875 80.0065 288.375V246.292C80.0065 243.792 81.4648 242.333 83.9648 242.333H84.1732C86.6732 242.333 87.9232 240.667 87.9232 238.375V237.958C87.9232 235.458 89.7982 233.583 92.2982 233.583H92.7148C95.0065 233.583 96.6732 232.333 96.6732 229.833V229.625C96.6732 227.125 98.1315 225.667 100.632 225.667H126.048C128.548 225.667 130.007 227.125 130.007 229.625V229.833C130.007 232.229 131.777 234 134.173 234C136.569 234 138.34 232.229 138.34 229.833V229.625C138.34 227.125 139.798 225.667 142.298 225.667H142.715C145.215 225.667 146.673 227.125 146.673 229.625V246.708C146.673 249.208 145.215 250.667 142.715 250.667H142.298C139.798 250.667 138.34 249.208 138.34 246.708V246.5C138.34 244.104 136.569 242.333 134.173 242.333H133.965C131.465 242.333 130.007 240.875 130.007 238.375V238.167C130.007 235.771 128.236 234 125.84 234H100.84C98.3398 234 97.0898 235.667 97.0898 237.958V238.375C97.0898 240.875 95.2148 242.75 92.7148 242.75H92.2982C90.0065 242.75 88.3398 244 88.3398 246.5V288.167C88.3398 290.667 90.0065 291.917 92.2982 291.917H92.7148C95.2148 291.917 97.0898 293.792 97.0898 296.292V296.708C97.0898 299 98.3398 300.667 100.84 300.667H125.84C128.34 300.667 129.59 299 129.59 296.708V296.292C129.59 293.792 131.465 291.917 133.965 291.917H134.382C136.882 291.917 137.923 290.875 137.923 288.375V287.958C137.923 285.458 139.798 283.583 142.298 283.583ZM228.859 242.333H229.068C231.568 242.333 233.026 243.792 233.026 246.292V288.375C233.026 290.875 231.568 292.333 229.068 292.333H228.859C226.359 292.333 225.109 294 225.109 296.292V296.708C225.109 299.208 223.234 301.083 220.734 301.083H220.318C218.026 301.083 216.359 302.333 216.359 304.833V305.042C216.359 307.542 214.901 309 212.401 309H178.651C176.151 309 174.693 307.542 174.693 305.042V304.833C174.693 302.333 173.026 301.083 170.734 301.083H170.318C167.818 301.083 165.943 299.208 165.943 296.708V296.292C165.943 294 164.693 292.333 162.193 292.333H161.984C159.484 292.333 158.026 290.875 158.026 288.375V246.292C158.026 243.792 159.484 242.333 161.984 242.333H162.193C164.693 242.333 165.943 240.667 165.943 238.375V237.958C165.943 235.458 167.818 233.583 170.318 233.583H170.734C173.026 233.583 174.693 232.333 174.693 229.833V229.625C174.693 227.125 176.151 225.667 178.651 225.667H212.401C214.901 225.667 216.359 227.125 216.359 229.625V229.833C216.359 232.333 218.026 233.583 220.318 233.583H220.734C223.234 233.583 225.109 235.458 225.109 237.958V238.375C225.109 240.667 226.359 242.333 228.859 242.333ZM224.693 246.5C224.693 244 223.026 242.75 220.734 242.75H220.318C217.818 242.75 215.943 240.875 215.943 238.375V237.958C215.943 235.667 214.693 234 212.193 234H178.859C176.359 234 175.109 235.667 175.109 237.958V238.375C175.109 240.875 173.234 242.75 170.734 242.75H170.318C168.026 242.75 166.359 244 166.359 246.5V288.167C166.359 290.667 168.026 291.917 170.318 291.917H170.734C173.234 291.917 175.109 293.792 175.109 296.292V296.708C175.109 299 176.359 300.667 178.859 300.667H212.193C214.693 300.667 215.943 299 215.943 296.708V296.292C215.943 293.792 217.818 291.917 220.318 291.917H220.734C223.026 291.917 224.693 290.667 224.693 288.167V246.5ZM303.526 300.667H303.734C306.234 300.667 307.693 302.125 307.693 304.625V305.042C307.693 307.542 306.234 309 303.734 309H295.193C292.693 309 291.026 307.333 291.026 304.833V296.5C291.026 294.104 289.255 292.333 286.859 292.333H286.651C284.151 292.333 282.693 290.875 282.693 288.375V279.833C282.693 277.437 280.922 275.667 278.526 275.667H278.318C275.818 275.667 274.359 274.208 274.359 271.708V271.5C274.359 269.104 272.589 267.333 270.193 267.333H261.859C259.464 267.333 257.693 269.104 257.693 271.5V296.5C257.693 298.896 259.464 300.667 261.859 300.667H270.401C272.901 300.667 274.359 302.125 274.359 304.625V305.042C274.359 307.542 272.901 309 270.401 309H244.984C242.484 309 241.026 307.542 241.026 305.042V304.625C241.026 302.125 242.484 300.667 244.984 300.667H245.401C248.214 300.667 249.359 299.521 249.359 296.708V237.958C249.359 235.146 248.214 234 245.401 234H244.984C242.484 234 241.026 232.542 241.026 230.042V229.625C241.026 227.125 242.484 225.667 244.984 225.667H287.068C289.568 225.667 291.026 227.125 291.026 229.625V229.833C291.026 232.229 292.797 234 295.193 234H295.401C297.901 234 299.359 235.458 299.359 237.958V255.042C299.359 257.542 297.901 259 295.401 259H295.193C292.797 259 291.026 260.771 291.026 263.167V263.375C291.026 265.875 289.568 267.333 287.068 267.333H286.859C284.464 267.333 282.693 269.104 282.693 271.5C282.693 273.896 284.464 275.667 286.859 275.667H287.068C289.568 275.667 291.026 277.125 291.026 279.625V288.167C291.026 290.562 292.797 292.333 295.193 292.333H295.401C297.901 292.333 299.359 293.792 299.359 296.292V296.5C299.359 298.896 301.13 300.667 303.526 300.667ZM261.859 259H286.859C289.255 259 291.026 257.229 291.026 254.833V238.167C291.026 235.771 289.255 234 286.859 234H261.859C259.464 234 257.693 235.771 257.693 238.167V254.833C257.693 257.229 259.464 259 261.859 259ZM373.212 234H373.421C375.921 234 377.379 235.458 377.379 237.958V255.042C377.379 257.542 375.921 259 373.421 259H373.212C370.816 259 369.046 260.771 369.046 263.167V263.375C369.046 265.875 367.587 267.333 365.087 267.333H339.879C337.483 267.333 335.712 269.104 335.712 271.5V296.5C335.712 298.896 337.483 300.667 339.879 300.667H348.421C350.921 300.667 352.379 302.125 352.379 304.625V305.042C352.379 307.542 350.921 309 348.421 309H323.004C320.504 309 319.046 307.542 319.046 305.042V304.625C319.046 302.125 320.504 300.667 323.004 300.667H323.421C326.233 300.667 327.379 299.521 327.379 296.708V237.958C327.379 235.146 326.233 234 323.421 234H323.004C320.504 234 319.046 232.542 319.046 230.042V229.625C319.046 227.125 320.504 225.667 323.004 225.667H365.087C367.587 225.667 369.046 227.125 369.046 229.625V229.833C369.046 232.229 370.816 234 373.212 234ZM369.046 254.833V238.167C369.046 235.771 367.275 234 364.879 234H339.879C337.483 234 335.712 235.771 335.712 238.167V254.833C335.712 257.229 337.483 259 339.879 259H364.879C367.275 259 369.046 257.229 369.046 254.833ZM434.292 225.667H434.708C437.208 225.667 438.667 227.125 438.667 229.625V246.708C438.667 249.208 437.208 250.667 434.708 250.667H434.292C431.792 250.667 430.333 249.208 430.333 246.708V246.5C430.333 244.104 428.563 242.333 426.167 242.333H425.958C423.458 242.333 422 240.875 422 238.375V238.167C422 235.771 420.229 234 417.833 234H401.167C398.771 234 397 235.771 397 238.167V254.833C397 257.229 398.771 259 401.167 259H409.708C412.208 259 413.667 260.458 413.667 262.958V263.167C413.667 265.562 415.438 267.333 417.833 267.333H426.375C428.875 267.333 430.333 268.792 430.333 271.292V271.5C430.333 273.896 432.104 275.667 434.5 275.667H434.708C437.208 275.667 438.667 277.125 438.667 279.625V296.708C438.667 299.208 437.208 300.667 434.708 300.667H434.5C432.104 300.667 430.333 302.437 430.333 304.833V305.042C430.333 307.542 428.875 309 426.375 309H409.292C406.792 309 405.333 307.542 405.333 305.042V304.833C405.333 302.437 403.563 300.667 401.167 300.667C398.771 300.667 397 302.437 397 304.833V305.042C397 307.542 395.542 309 393.042 309H392.625C390.125 309 388.667 307.542 388.667 305.042V287.958C388.667 285.458 390.125 284 392.625 284H393.042C395.542 284 397 285.458 397 287.958V288.167C397 290.562 398.771 292.333 401.167 292.333H401.375C403.875 292.333 405.333 293.792 405.333 296.292V296.5C405.333 298.896 407.104 300.667 409.5 300.667H426.167C428.563 300.667 430.333 298.896 430.333 296.5V279.833C430.333 277.437 428.563 275.667 426.167 275.667H417.625C415.125 275.667 413.667 274.208 413.667 271.708V271.5C413.667 269.104 411.896 267.333 409.5 267.333H400.958C398.458 267.333 397 265.875 397 263.375V263.167C397 260.771 395.229 259 392.833 259H392.625C390.125 259 388.667 257.542 388.667 255.042V237.958C388.667 235.458 390.125 234 392.625 234H392.833C395.229 234 397 232.229 397 229.833V229.625C397 227.125 398.458 225.667 400.958 225.667H418.042C420.542 225.667 422 227.125 422 229.625V229.833C422 232.229 423.771 234 426.167 234C428.563 234 430.333 232.229 430.333 229.833V229.625C430.333 227.125 431.792 225.667 434.292 225.667ZM512.279 283.583H512.695C515.195 283.583 517.07 285.458 517.07 287.958V288.375C517.07 290.875 515.195 292.75 512.695 292.75H512.279C509.987 292.75 508.32 294 508.32 296.5V304.833C508.32 307.333 506.654 309 504.154 309H453.945C451.445 309 449.987 307.542 449.987 305.042V304.625C449.987 302.125 451.445 300.667 453.945 300.667H454.362C457.174 300.667 458.32 299.521 458.32 296.708V237.958C458.32 235.146 457.174 234 454.362 234H453.945C451.445 234 449.987 232.542 449.987 230.042V229.625C449.987 227.125 451.445 225.667 453.945 225.667H504.154C506.654 225.667 508.32 227.333 508.32 229.833V238.375C508.32 240.875 506.862 242.333 504.362 242.333H503.945C501.445 242.333 499.987 240.875 499.987 238.375V238.167C499.987 235.771 498.216 234 495.82 234H470.82C468.424 234 466.654 235.771 466.654 238.167V254.833C466.654 257.229 468.424 259 470.82 259H479.154C481.549 259 483.32 257.229 483.32 254.833V254.625C483.32 252.125 484.779 250.667 487.279 250.667H487.695C490.195 250.667 491.654 252.125 491.654 254.625V271.708C491.654 274.208 490.195 275.667 487.695 275.667H487.279C484.779 275.667 483.32 274.208 483.32 271.708V271.5C483.32 269.104 481.549 267.333 479.154 267.333H470.82C468.424 267.333 466.654 269.104 466.654 271.5V296.5C466.654 298.896 468.424 300.667 470.82 300.667H495.82C498.216 300.667 499.987 298.896 499.987 296.5V296.292C499.987 293.792 501.445 292.333 503.945 292.333H504.154C506.654 292.333 507.904 290.667 507.904 288.375V287.958C507.904 285.458 509.779 283.583 512.279 283.583ZM573.632 225.667H574.048C576.548 225.667 578.007 227.125 578.007 229.625V246.708C578.007 249.208 576.548 250.667 574.048 250.667H573.632C571.132 250.667 569.673 249.208 569.673 246.708V246.5C569.673 244.104 567.902 242.333 565.507 242.333H565.298C562.798 242.333 561.34 240.875 561.34 238.375V238.167C561.34 235.771 559.569 234 557.173 234H540.507C538.111 234 536.34 235.771 536.34 238.167V254.833C536.34 257.229 538.111 259 540.507 259H549.048C551.548 259 553.007 260.458 553.007 262.958V263.167C553.007 265.562 554.777 267.333 557.173 267.333H565.715C568.215 267.333 569.673 268.792 569.673 271.292V271.5C569.673 273.896 571.444 275.667 573.84 275.667H574.048C576.548 275.667 578.007 277.125 578.007 279.625V296.708C578.007 299.208 576.548 300.667 574.048 300.667H573.84C571.444 300.667 569.673 302.437 569.673 304.833V305.042C569.673 307.542 568.215 309 565.715 309H548.632C546.132 309 544.673 307.542 544.673 305.042V304.833C544.673 302.437 542.902 300.667 540.507 300.667C538.111 300.667 536.34 302.437 536.34 304.833V305.042C536.34 307.542 534.882 309 532.382 309H531.965C529.465 309 528.007 307.542 528.007 305.042V287.958C528.007 285.458 529.465 284 531.965 284H532.382C534.882 284 536.34 285.458 536.34 287.958V288.167C536.34 290.562 538.111 292.333 540.507 292.333H540.715C543.215 292.333 544.673 293.792 544.673 296.292V296.5C544.673 298.896 546.444 300.667 548.84 300.667H565.507C567.902 300.667 569.673 298.896 569.673 296.5V279.833C569.673 277.437 567.902 275.667 565.507 275.667H556.965C554.465 275.667 553.007 274.208 553.007 271.708V271.5C553.007 269.104 551.236 267.333 548.84 267.333H540.298C537.798 267.333 536.34 265.875 536.34 263.375V263.167C536.34 260.771 534.569 259 532.173 259H531.965C529.465 259 528.007 257.542 528.007 255.042V237.958C528.007 235.458 529.465 234 531.965 234H532.173C534.569 234 536.34 232.229 536.34 229.833V229.625C536.34 227.125 537.798 225.667 540.298 225.667H557.382C559.882 225.667 561.34 227.125 561.34 229.625V229.833C561.34 232.229 563.111 234 565.507 234C567.902 234 569.673 232.229 569.673 229.833V229.625C569.673 227.125 571.132 225.667 573.632 225.667Z" fill="white"/>
<path d="M324.403 38.9738C324.403 36.9064 322.727 35.2305 320.66 35.2305H311.603C310.024 35.2305 308.743 33.95 308.743 32.3705C308.743 30.7909 307.463 29.5105 305.883 29.5105H302.872C301.292 29.5105 300.011 28.2294 300.011 26.6492V25.2933C300.011 24.462 299.337 23.788 298.505 23.788C297.674 23.788 297 23.1141 297 22.2828V12.6467C297 11.8153 297.674 11.1414 298.505 11.1414C299.337 11.1414 300.011 10.4675 300.011 9.63611V8.28018C300.011 6.69998 301.292 5.41897 302.872 5.41897H309.348C310.844 5.41897 312.057 4.20589 312.057 2.70949C312.057 1.21308 313.271 0 314.767 0H342.772C344.268 0 345.482 1.21308 345.482 2.70949C345.482 4.20589 346.695 5.41897 348.191 5.41897H354.966C356.546 5.41897 357.827 6.69998 357.827 8.28018V9.63492C357.827 10.4669 358.502 11.1414 359.334 11.1414C360.166 11.1414 360.84 11.8159 360.84 12.6478V22.2816C360.84 23.1136 360.166 23.788 359.334 23.788C358.502 23.788 357.827 24.4625 357.827 25.2945V26.6492C357.827 28.2294 356.546 29.5105 354.966 29.5105H351.957C350.377 29.5105 349.097 30.7909 349.097 32.3705C349.097 33.95 347.816 35.2305 346.237 35.2305H337.481C335.414 35.2305 333.738 36.9064 333.738 38.9738V43.233C333.738 45.3004 335.414 46.9764 337.481 46.9764H341.116C342.696 46.9764 343.976 48.2568 343.976 49.8364C343.976 51.4159 345.257 52.6964 346.837 52.6964C348.417 52.6964 349.699 53.9774 349.699 55.5576V62.0338C349.699 63.6965 351.047 65.0444 352.709 65.0444C354.372 65.0444 355.72 66.3922 355.72 68.0549C355.72 69.7176 354.372 71.0654 352.709 71.0654H347.419C345.351 71.0654 343.675 69.3895 343.675 67.3221V56.7408C343.675 54.6734 341.999 52.9974 339.932 52.9974H317.908C315.841 52.9974 314.165 54.6734 314.165 56.7408V67.3221C314.165 69.3895 312.489 71.0654 310.422 71.0654H305.131C303.468 71.0654 302.12 69.7176 302.12 68.0549C302.12 66.3922 303.468 65.0444 305.131 65.0444C306.793 65.0444 308.141 63.6965 308.141 62.0338V55.5576C308.141 53.9774 309.423 52.6964 311.003 52.6964C312.583 52.6964 313.864 51.4159 313.864 49.8364C313.864 48.2568 315.144 46.9764 316.724 46.9764H320.66C322.727 46.9764 324.403 45.3004 324.403 43.233V38.9738ZM313.864 8.4319C313.864 9.92831 312.651 11.1414 311.154 11.1414H306.767C304.699 11.1414 303.023 12.8173 303.023 14.8847V19.1416C303.023 21.2089 304.699 22.8849 306.767 22.8849H310.702C312.448 22.8849 313.864 24.3007 313.864 26.0471C313.864 27.7936 315.28 29.2094 317.026 29.2094H321.843C323.091 29.2094 324.102 28.198 324.102 26.9503C324.102 25.7026 323.091 24.6912 321.843 24.6912H320.488C318.492 24.6912 316.874 23.0732 316.874 21.0774V13.8521C316.874 11.8562 318.492 10.2382 320.488 10.2382H321.844C323.091 10.2382 324.102 9.22732 324.102 7.98032C324.102 6.73331 323.091 5.72241 321.844 5.72241H316.573C315.077 5.72241 313.864 6.93549 313.864 8.4319ZM333.437 7.98032C333.437 9.22732 334.448 10.2382 335.695 10.2382H337.222C339.29 10.2382 340.966 11.9142 340.966 13.9815V20.9479C340.966 23.0153 339.29 24.6912 337.222 24.6912H335.696C334.448 24.6912 333.437 25.7026 333.437 26.9503C333.437 28.198 334.448 29.2094 335.696 29.2094H340.814C342.56 29.2094 343.976 27.7936 343.976 26.0471C343.976 24.3007 345.392 22.8849 347.139 22.8849H351.073C353.141 22.8849 354.817 21.2089 354.817 19.1416V14.8847C354.817 12.8173 353.141 11.1414 351.073 11.1414H346.686C345.189 11.1414 343.976 9.92831 343.976 8.4319C343.976 6.93549 342.763 5.72241 341.267 5.72241H335.695C334.448 5.72241 333.437 6.73331 333.437 7.98032Z" fill="white"/>
</svg>
