<svg width="278" height="26" viewBox="0 0 278 26" fill="none" xmlns="http://www.w3.org/2000/svg">
<path d="M41.2498 14.4048H41.3415C41.8919 14.4048 42.3046 14.8175 42.3046 15.3679V15.4596C42.3046 16.01 41.8919 16.4227 41.3415 16.4227H41.2498C40.7453 16.4227 40.3784 16.6979 40.3784 17.2483V19.0828C40.3784 19.6331 40.0115 20 39.4612 20H28.4083C27.858 20 27.5369 19.679 27.5369 19.1286V19.0369C27.5369 18.4865 27.858 18.1655 28.4083 18.1655H28.5C29.1192 18.1655 29.3714 17.9133 29.3714 17.2941V4.36089C29.3714 3.74175 29.1192 3.4895 28.5 3.4895H28.4083C27.858 3.4895 27.5369 3.16847 27.5369 2.61812V2.52639C27.5369 1.97604 27.858 1.655 28.4083 1.655H39.4612C40.0115 1.655 40.3784 2.0219 40.3784 2.57225V4.45262C40.3784 5.00297 40.0574 5.324 39.507 5.324H39.4153C38.8649 5.324 38.5439 5.00297 38.5439 4.45262V4.40675C38.5439 3.87933 38.1541 3.4895 37.6267 3.4895H32.1232C31.5957 3.4895 31.2059 3.87933 31.2059 4.40675V8.07575C31.2059 8.60317 31.5957 8.993 32.1232 8.993H33.9577C34.4851 8.993 34.8749 8.60317 34.8749 8.07575V8.02989C34.8749 7.47954 35.1959 7.1585 35.7463 7.1585H35.838C36.3884 7.1585 36.7094 7.47954 36.7094 8.02989V11.7906C36.7094 12.341 36.3884 12.662 35.838 12.662H35.7463C35.1959 12.662 34.8749 12.341 34.8749 11.7906V11.7448C34.8749 11.2173 34.4851 10.8275 33.9577 10.8275H32.1232C31.5957 10.8275 31.2059 11.2173 31.2059 11.7448V17.2483C31.2059 17.7757 31.5957 18.1655 32.1232 18.1655H37.6267C38.1541 18.1655 38.5439 17.7757 38.5439 17.2483V17.2024C38.5439 16.652 38.8649 16.331 39.4153 16.331H39.4612C40.0115 16.331 40.2867 15.9641 40.2867 15.4596V15.3679C40.2867 14.8175 40.6994 14.4048 41.2498 14.4048ZM52.0573 9.91025V11.7448C52.0573 12.2951 52.4242 12.5703 52.9287 12.5703H53.0204C53.5708 12.5703 53.9835 12.983 53.9835 13.5334V13.6251C53.9835 14.1755 54.2128 14.4048 54.7632 14.4048H54.8549C55.4053 14.4048 55.818 14.8175 55.818 15.3679V15.4596C55.818 15.9641 56.0932 16.331 56.6435 16.331H56.6894C57.2398 16.331 57.5608 16.652 57.5608 17.2024V17.2483C57.5608 17.7757 57.9506 18.1655 58.478 18.1655H58.5239C59.0743 18.1655 59.3953 18.4865 59.3953 19.0369V19.1286C59.3953 19.679 59.0743 20 58.5239 20H54.7632C54.2128 20 53.8918 19.679 53.8918 19.1286V19.0369C53.8918 18.4865 54.2128 18.1655 54.7632 18.1655H54.809C55.3365 18.1655 55.7263 17.7757 55.7263 17.2483C55.7263 16.6979 55.3594 16.4227 54.8549 16.4227H54.7632C54.2128 16.4227 53.8001 16.01 53.8001 15.4596V15.3679C53.8001 14.8175 53.5708 14.5882 53.0204 14.5882H52.9287C52.3783 14.5882 51.9656 14.1755 51.9656 13.6251V13.5334C51.9656 13.0289 51.6904 12.662 51.14 12.662C50.5897 12.662 50.3145 13.0289 50.3145 13.5334V13.6251C50.3145 14.1755 49.9018 14.5882 49.3514 14.5882H49.2597C48.7093 14.5882 48.48 14.8175 48.48 15.3679V15.4596C48.48 16.01 48.0673 16.4227 47.5169 16.4227H47.4252C46.9207 16.4227 46.5538 16.6979 46.5538 17.2483C46.5538 17.7757 46.9436 18.1655 47.471 18.1655H47.5169C48.0673 18.1655 48.3883 18.4865 48.3883 19.0369V19.1286C48.3883 19.679 48.0673 20 47.5169 20H43.7562C43.2058 20 42.8848 19.679 42.8848 19.1286V19.0369C42.8848 18.4865 43.2058 18.1655 43.7562 18.1655H43.802C44.3295 18.1655 44.7193 17.7757 44.7193 17.2483V17.2024C44.7193 16.652 45.0403 16.331 45.5907 16.331H45.6365C46.1869 16.331 46.4621 15.9641 46.4621 15.4596V15.3679C46.4621 14.8175 46.8748 14.4048 47.4252 14.4048H47.5169C48.0673 14.4048 48.2966 14.1755 48.2966 13.6251V13.5334C48.2966 12.983 48.7093 12.5703 49.2597 12.5703H49.3514C49.8559 12.5703 50.2228 12.2951 50.2228 11.7448V9.91025C50.2228 9.3599 49.8559 9.08473 49.3514 9.08473H49.2597C48.7093 9.08473 48.2966 8.67197 48.2966 8.12161V8.02989C48.2966 7.47954 48.0673 7.25023 47.5169 7.25023H47.4252C46.8748 7.25023 46.4621 6.83746 46.4621 6.28712V6.19539C46.4621 5.6909 46.1869 5.324 45.6365 5.324H45.5907C45.0403 5.324 44.7193 5.00297 44.7193 4.45262V4.40675C44.7193 3.87933 44.3295 3.4895 43.802 3.4895H43.7562C43.2058 3.4895 42.8848 3.16847 42.8848 2.61812V2.52639C42.8848 1.97604 43.2058 1.655 43.7562 1.655H47.5169C48.0673 1.655 48.3883 1.97604 48.3883 2.52639V2.61812C48.3883 3.16847 48.0673 3.4895 47.5169 3.4895H47.471C46.9436 3.4895 46.5538 3.87933 46.5538 4.40675C46.5538 4.9571 46.9207 5.23228 47.4252 5.23228H47.5169C48.0673 5.23228 48.48 5.64504 48.48 6.19539V6.28712C48.48 6.83746 48.7093 7.06678 49.2597 7.06678H49.3514C49.9018 7.06678 50.3145 7.47954 50.3145 8.02989V8.12161C50.3145 8.6261 50.5897 8.993 51.14 8.993C51.6904 8.993 51.9656 8.6261 51.9656 8.12161V8.02989C51.9656 7.47954 52.3783 7.06678 52.9287 7.06678H53.0204C53.5708 7.06678 53.8001 6.83746 53.8001 6.28712V6.19539C53.8001 5.64504 54.2128 5.23228 54.7632 5.23228H54.8549C55.3594 5.23228 55.7263 4.9571 55.7263 4.40675C55.7263 3.87933 55.3365 3.4895 54.809 3.4895H54.7632C54.2128 3.4895 53.8918 3.16847 53.8918 2.61812V2.52639C53.8918 1.97604 54.2128 1.655 54.7632 1.655H58.5239C59.0743 1.655 59.3953 1.97604 59.3953 2.52639V2.61812C59.3953 3.16847 59.0743 3.4895 58.5239 3.4895H58.478C57.9506 3.4895 57.5608 3.87933 57.5608 4.40675V4.45262C57.5608 5.00297 57.2398 5.324 56.6894 5.324H56.6435C56.0932 5.324 55.818 5.6909 55.818 6.19539V6.28712C55.818 6.83746 55.4053 7.25023 54.8549 7.25023H54.7632C54.2128 7.25023 53.9835 7.47954 53.9835 8.02989V8.12161C53.9835 8.67197 53.5708 9.08473 53.0204 9.08473H52.9287C52.4242 9.08473 52.0573 9.3599 52.0573 9.91025ZM77.5336 23.669C78.084 23.669 78.405 23.99 78.405 24.5404V24.6321C78.405 25.1825 78.084 25.5035 77.5336 25.5035H73.7729C73.2225 25.5035 72.9015 25.1825 72.9015 24.6321V24.5862C72.9015 24.0588 72.5117 23.669 71.9843 23.669H70.1039C69.5535 23.669 69.2325 23.348 69.2325 22.7976V22.7517C69.2325 22.2243 68.8427 21.8345 68.3153 21.8345H68.2694C67.719 21.8345 67.398 21.5135 67.398 20.9631V20H64.6004C64.05 20 63.729 19.679 63.729 19.1286V19.0828C63.729 18.5324 63.3621 18.2572 62.8576 18.2572H62.7659C62.2155 18.2572 61.8028 17.8445 61.8028 17.2941V17.2024C61.8028 16.6979 61.5276 16.331 60.9773 16.331H60.9314C60.381 16.331 60.06 16.01 60.06 15.4596V6.19539C60.06 5.64504 60.381 5.324 60.9314 5.324H60.9773C61.5276 5.324 61.8028 4.9571 61.8028 4.45262V4.36089C61.8028 3.81054 62.2155 3.39778 62.7659 3.39778H62.8576C63.3621 3.39778 63.729 3.1226 63.729 2.57225V2.52639C63.729 1.97604 64.05 1.655 64.6004 1.655H72.0301C72.5805 1.655 72.9015 1.97604 72.9015 2.52639V2.57225C72.9015 3.1226 73.2684 3.39778 73.7729 3.39778H73.8646C74.415 3.39778 74.8277 3.81054 74.8277 4.36089V4.45262C74.8277 4.9571 75.1029 5.324 75.6533 5.324H75.6991C76.2495 5.324 76.5705 5.64504 76.5705 6.19539V15.4596C76.5705 16.01 76.2495 16.331 75.6991 16.331H75.6533C75.1029 16.331 74.8277 16.6979 74.8277 17.2024V17.2941C74.8277 17.8445 74.415 18.2572 73.8646 18.2572H73.7729C73.2684 18.2572 72.9015 18.5324 72.9015 19.0828V19.1286C72.9015 19.679 72.5805 20 72.0301 20H69.2325V20.9172C69.2325 21.4447 69.6223 21.8345 70.1498 21.8345H72.0301C72.5805 21.8345 72.9015 22.1555 72.9015 22.7059V22.7517C72.9015 23.2792 73.2913 23.669 73.8188 23.669H77.5336ZM64.6463 18.1655H71.9843C72.5346 18.1655 72.8098 17.7986 72.8098 17.2941V17.2024C72.8098 16.652 73.2225 16.2393 73.7729 16.2393H73.8646C74.3691 16.2393 74.736 15.9641 74.736 15.4138V6.24125C74.736 5.6909 74.3691 5.41573 73.8646 5.41573H73.7729C73.2225 5.41573 72.8098 5.00297 72.8098 4.45262V4.36089C72.8098 3.8564 72.5346 3.4895 71.9843 3.4895H64.6463C64.0959 3.4895 63.8207 3.8564 63.8207 4.36089V4.45262C63.8207 5.00297 63.408 5.41573 62.8576 5.41573H62.7659C62.2614 5.41573 61.8945 5.6909 61.8945 6.24125V15.4138C61.8945 15.9641 62.2614 16.2393 62.7659 16.2393H62.8576C63.408 16.2393 63.8207 16.652 63.8207 17.2024V17.2941C63.8207 17.7986 64.0959 18.1655 64.6463 18.1655ZM93.9707 1.655C94.5211 1.655 94.8421 1.97604 94.8421 2.52639V2.61812C94.8421 3.16847 94.5211 3.4895 93.9707 3.4895H93.879C93.2599 3.4895 93.0076 3.74175 93.0076 4.36089V15.4596C93.0076 16.01 92.6866 16.331 92.1362 16.331H92.0904C91.54 16.331 91.2648 16.6979 91.2648 17.2024V17.2941C91.2648 17.8445 90.8521 18.2572 90.3017 18.2572H90.21C89.7055 18.2572 89.3386 18.5324 89.3386 19.0828V19.1286C89.3386 19.679 89.0176 20 88.4672 20H84.7065C84.1562 20 83.8351 19.679 83.8351 19.1286V19.0828C83.8351 18.5324 83.4682 18.2572 82.9637 18.2572H82.872C82.3217 18.2572 81.9089 17.8445 81.9089 17.2941V17.2024C81.9089 16.6979 81.6337 16.331 81.0834 16.331H81.0375C80.4872 16.331 80.1661 16.01 80.1661 15.4596V4.36089C80.1661 3.74175 79.9139 3.4895 79.2947 3.4895H79.203C78.6527 3.4895 78.3316 3.16847 78.3316 2.61812V2.52639C78.3316 1.97604 78.6527 1.655 79.203 1.655H82.9637C83.5141 1.655 83.8351 1.97604 83.8351 2.52639V2.61812C83.8351 3.16847 83.5141 3.4895 82.9637 3.4895H82.872C82.2529 3.4895 82.0006 3.74175 82.0006 4.36089V15.4138C82.0006 15.9641 82.3675 16.2393 82.872 16.2393H82.9637C83.5141 16.2393 83.9268 16.652 83.9268 17.2024V17.2941C83.9268 17.7986 84.202 18.1655 84.7524 18.1655H88.4214C88.9717 18.1655 89.2469 17.7986 89.2469 17.2941V17.2024C89.2469 16.652 89.6597 16.2393 90.21 16.2393H90.3017C90.8062 16.2393 91.1731 15.9641 91.1731 15.4138V4.36089C91.1731 3.74175 90.9209 3.4895 90.3017 3.4895H90.21C89.6597 3.4895 89.3386 3.16847 89.3386 2.61812V2.52639C89.3386 1.97604 89.6597 1.655 90.21 1.655H93.9707ZM101.003 17.2941C101.003 17.9133 101.255 18.1655 101.875 18.1655H101.966C102.517 18.1655 102.838 18.4865 102.838 19.0369V19.1286C102.838 19.679 102.517 20 101.966 20H98.2056C97.6552 20 97.3342 19.679 97.3342 19.1286V19.0369C97.3342 18.4865 97.6552 18.1655 98.2056 18.1655H98.2973C98.9164 18.1655 99.1687 17.9133 99.1687 17.2941V4.36089C99.1687 3.74175 98.9164 3.4895 98.2973 3.4895H98.2056C97.6552 3.4895 97.3342 3.16847 97.3342 2.61812V2.52639C97.3342 1.97604 97.6552 1.655 98.2056 1.655H101.966C102.517 1.655 102.838 1.97604 102.838 2.52639V2.61812C102.838 3.16847 102.517 3.4895 101.966 3.4895H101.875C101.255 3.4895 101.003 3.74175 101.003 4.36089V17.2941ZM115.374 1.655H115.465C116.016 1.655 116.337 1.97604 116.337 2.52639V6.28712C116.337 6.83746 116.016 7.1585 115.465 7.1585H115.374C114.823 7.1585 114.502 6.83746 114.502 6.28712V6.24125C114.502 5.71383 114.112 5.324 113.585 5.324H113.539C112.989 5.324 112.668 5.00297 112.668 4.45262V4.40675C112.668 3.87933 112.278 3.4895 111.75 3.4895H108.081C107.554 3.4895 107.164 3.87933 107.164 4.40675V8.07575C107.164 8.60317 107.554 8.993 108.081 8.993H109.962C110.512 8.993 110.833 9.31404 110.833 9.86439V9.91025C110.833 10.4377 111.223 10.8275 111.75 10.8275H113.631C114.181 10.8275 114.502 11.1485 114.502 11.6989V11.7448C114.502 12.2722 114.892 12.662 115.419 12.662H115.465C116.016 12.662 116.337 12.983 116.337 13.5334V17.2941C116.337 17.8445 116.016 18.1655 115.465 18.1655H115.419C114.892 18.1655 114.502 18.5553 114.502 19.0828V19.1286C114.502 19.679 114.181 20 113.631 20H109.87C109.32 20 108.999 19.679 108.999 19.1286V19.0828C108.999 18.5553 108.609 18.1655 108.081 18.1655C107.554 18.1655 107.164 18.5553 107.164 19.0828V19.1286C107.164 19.679 106.843 20 106.293 20H106.201C105.651 20 105.33 19.679 105.33 19.1286V15.3679C105.33 14.8175 105.651 14.4965 106.201 14.4965H106.293C106.843 14.4965 107.164 14.8175 107.164 15.3679V15.4138C107.164 15.9412 107.554 16.331 108.081 16.331H108.127C108.678 16.331 108.999 16.652 108.999 17.2024V17.2483C108.999 17.7757 109.389 18.1655 109.916 18.1655H113.585C114.112 18.1655 114.502 17.7757 114.502 17.2483V13.5793C114.502 13.0518 114.112 12.662 113.585 12.662H111.705C111.154 12.662 110.833 12.341 110.833 11.7906V11.7448C110.833 11.2173 110.443 10.8275 109.916 10.8275H108.036C107.485 10.8275 107.164 10.5065 107.164 9.95611V9.91025C107.164 9.38283 106.774 8.993 106.247 8.993H106.201C105.651 8.993 105.33 8.67197 105.33 8.12161V4.36089C105.33 3.81054 105.651 3.4895 106.201 3.4895H106.247C106.774 3.4895 107.164 3.09967 107.164 2.57225V2.52639C107.164 1.97604 107.485 1.655 108.036 1.655H111.796C112.347 1.655 112.668 1.97604 112.668 2.52639V2.57225C112.668 3.09967 113.058 3.4895 113.585 3.4895C114.112 3.4895 114.502 3.09967 114.502 2.57225V2.52639C114.502 1.97604 114.823 1.655 115.374 1.655ZM122.498 17.2941C122.498 17.9133 122.75 18.1655 123.369 18.1655H123.461C124.011 18.1655 124.332 18.4865 124.332 19.0369V19.1286C124.332 19.679 124.011 20 123.461 20H119.7C119.15 20 118.829 19.679 118.829 19.1286V19.0369C118.829 18.4865 119.15 18.1655 119.7 18.1655H119.792C120.411 18.1655 120.663 17.9133 120.663 17.2941V4.36089C120.663 3.74175 120.411 3.4895 119.792 3.4895H119.7C119.15 3.4895 118.829 3.16847 118.829 2.61812V2.52639C118.829 1.97604 119.15 1.655 119.7 1.655H123.461C124.011 1.655 124.332 1.97604 124.332 2.52639V2.61812C124.332 3.16847 124.011 3.4895 123.461 3.4895H123.369C122.75 3.4895 122.498 3.74175 122.498 4.36089V17.2941ZM140.216 1.655C140.767 1.655 141.133 2.0219 141.133 2.57225V4.45262C141.133 5.00297 140.812 5.324 140.262 5.324H140.17C139.62 5.324 139.299 5.00297 139.299 4.45262V4.40675C139.299 3.87933 138.909 3.4895 138.382 3.4895H135.813C135.286 3.4895 134.896 3.87933 134.896 4.40675V17.2483C134.896 17.7757 135.286 18.1655 135.813 18.1655H137.694C138.244 18.1655 138.565 18.4865 138.565 19.0369V19.1286C138.565 19.679 138.244 20 137.694 20H130.264C129.714 20 129.393 19.679 129.393 19.1286V19.0369C129.393 18.4865 129.714 18.1655 130.264 18.1655H132.144C132.672 18.1655 133.062 17.7757 133.062 17.2483V4.40675C133.062 3.87933 132.672 3.4895 132.144 3.4895H129.576C129.049 3.4895 128.659 3.87933 128.659 4.40675V4.45262C128.659 5.00297 128.338 5.324 127.787 5.324H127.696C127.145 5.324 126.824 5.00297 126.824 4.45262V2.57225C126.824 2.0219 127.191 1.655 127.742 1.655H140.216ZM157.347 14.4048H157.439C157.989 14.4048 158.402 14.8175 158.402 15.3679V15.4596C158.402 16.01 157.989 16.4227 157.439 16.4227H157.347C156.842 16.4227 156.476 16.6979 156.476 17.2483V19.0828C156.476 19.6331 156.109 20 155.558 20H144.505C143.955 20 143.634 19.679 143.634 19.1286V19.0369C143.634 18.4865 143.955 18.1655 144.505 18.1655H144.597C145.216 18.1655 145.469 17.9133 145.469 17.2941V4.36089C145.469 3.74175 145.216 3.4895 144.597 3.4895H144.505C143.955 3.4895 143.634 3.16847 143.634 2.61812V2.52639C143.634 1.97604 143.955 1.655 144.505 1.655H155.558C156.109 1.655 156.476 2.0219 156.476 2.57225V4.45262C156.476 5.00297 156.155 5.324 155.604 5.324H155.512C154.962 5.324 154.641 5.00297 154.641 4.45262V4.40675C154.641 3.87933 154.251 3.4895 153.724 3.4895H148.22C147.693 3.4895 147.303 3.87933 147.303 4.40675V8.07575C147.303 8.60317 147.693 8.993 148.22 8.993H150.055C150.582 8.993 150.972 8.60317 150.972 8.07575V8.02989C150.972 7.47954 151.293 7.1585 151.843 7.1585H151.935C152.486 7.1585 152.807 7.47954 152.807 8.02989V11.7906C152.807 12.341 152.486 12.662 151.935 12.662H151.843C151.293 12.662 150.972 12.341 150.972 11.7906V11.7448C150.972 11.2173 150.582 10.8275 150.055 10.8275H148.22C147.693 10.8275 147.303 11.2173 147.303 11.7448V17.2483C147.303 17.7757 147.693 18.1655 148.22 18.1655H153.724C154.251 18.1655 154.641 17.7757 154.641 17.2483V17.2024C154.641 16.652 154.962 16.331 155.512 16.331H155.558C156.109 16.331 156.384 15.9641 156.384 15.4596V15.3679C156.384 14.8175 156.797 14.4048 157.347 14.4048ZM180.862 14.4048H180.954C181.504 14.4048 181.917 14.8175 181.917 15.3679V15.4596C181.917 16.01 181.504 16.4227 180.954 16.4227H180.862C180.312 16.4227 180.083 16.652 180.083 17.2024V17.2941C180.083 17.8445 179.67 18.2572 179.12 18.2572H179.028C178.523 18.2572 178.156 18.5324 178.156 19.0828V19.1286C178.156 19.679 177.835 20 177.285 20H171.69C171.14 20 170.818 19.679 170.818 19.1286V19.0828C170.818 18.5324 170.452 18.2572 169.947 18.2572H169.855C169.305 18.2572 168.892 17.8445 168.892 17.2941V17.2024C168.892 16.6979 168.617 16.331 168.067 16.331H168.021C167.471 16.331 167.149 16.01 167.149 15.4596V6.19539C167.149 5.64504 167.471 5.324 168.021 5.324H168.067C168.617 5.324 168.892 4.9571 168.892 4.45262V4.36089C168.892 3.81054 169.305 3.39778 169.855 3.39778H169.947C170.452 3.39778 170.818 3.1226 170.818 2.57225V2.52639C170.818 1.97604 171.14 1.655 171.69 1.655H177.285C177.835 1.655 178.156 1.97604 178.156 2.52639V2.57225C178.156 3.09967 178.546 3.4895 179.074 3.4895C179.601 3.4895 179.991 3.09967 179.991 2.57225V2.52639C179.991 1.97604 180.312 1.655 180.862 1.655H180.954C181.504 1.655 181.825 1.97604 181.825 2.52639V6.28712C181.825 6.83746 181.504 7.1585 180.954 7.1585H180.862C180.312 7.1585 179.991 6.83746 179.991 6.28712V6.24125C179.991 5.71383 179.601 5.324 179.074 5.324H179.028C178.478 5.324 178.156 5.00297 178.156 4.45262V4.40675C178.156 3.87933 177.767 3.4895 177.239 3.4895H171.736C171.185 3.4895 170.91 3.8564 170.91 4.36089V4.45262C170.91 5.00297 170.497 5.41573 169.947 5.41573H169.855C169.351 5.41573 168.984 5.6909 168.984 6.24125V15.4138C168.984 15.9641 169.351 16.2393 169.855 16.2393H169.947C170.497 16.2393 170.91 16.652 170.91 17.2024V17.2941C170.91 17.7986 171.185 18.1655 171.736 18.1655H177.239C177.79 18.1655 178.065 17.7986 178.065 17.2941V17.2024C178.065 16.652 178.478 16.2393 179.028 16.2393H179.12C179.67 16.2393 179.899 16.01 179.899 15.4596V15.3679C179.899 14.8175 180.312 14.4048 180.862 14.4048ZM199.918 5.324H199.964C200.514 5.324 200.835 5.64504 200.835 6.19539V15.4596C200.835 16.01 200.514 16.331 199.964 16.331H199.918C199.368 16.331 199.092 16.6979 199.092 17.2024V17.2941C199.092 17.8445 198.68 18.2572 198.129 18.2572H198.038C197.533 18.2572 197.166 18.5324 197.166 19.0828V19.1286C197.166 19.679 196.845 20 196.295 20H188.865C188.315 20 187.994 19.679 187.994 19.1286V19.0828C187.994 18.5324 187.627 18.2572 187.122 18.2572H187.031C186.48 18.2572 186.067 17.8445 186.067 17.2941V17.2024C186.067 16.6979 185.792 16.331 185.242 16.331H185.196C184.646 16.331 184.325 16.01 184.325 15.4596V6.19539C184.325 5.64504 184.646 5.324 185.196 5.324H185.242C185.792 5.324 186.067 4.9571 186.067 4.45262V4.36089C186.067 3.81054 186.48 3.39778 187.031 3.39778H187.122C187.627 3.39778 187.994 3.1226 187.994 2.57225V2.52639C187.994 1.97604 188.315 1.655 188.865 1.655H196.295C196.845 1.655 197.166 1.97604 197.166 2.52639V2.57225C197.166 3.1226 197.533 3.39778 198.038 3.39778H198.129C198.68 3.39778 199.092 3.81054 199.092 4.36089V4.45262C199.092 4.9571 199.368 5.324 199.918 5.324ZM199.001 6.24125C199.001 5.6909 198.634 5.41573 198.129 5.41573H198.038C197.487 5.41573 197.074 5.00297 197.074 4.45262V4.36089C197.074 3.8564 196.799 3.4895 196.249 3.4895H188.911C188.361 3.4895 188.085 3.8564 188.085 4.36089V4.45262C188.085 5.00297 187.673 5.41573 187.122 5.41573H187.031C186.526 5.41573 186.159 5.6909 186.159 6.24125V15.4138C186.159 15.9641 186.526 16.2393 187.031 16.2393H187.122C187.673 16.2393 188.085 16.652 188.085 17.2024V17.2941C188.085 17.7986 188.361 18.1655 188.911 18.1655H196.249C196.799 18.1655 197.074 17.7986 197.074 17.2941V17.2024C197.074 16.652 197.487 16.2393 198.038 16.2393H198.129C198.634 16.2393 199.001 15.9641 199.001 15.4138V6.24125ZM216.355 18.1655H216.401C216.951 18.1655 217.272 18.4865 217.272 19.0369V19.1286C217.272 19.679 216.951 20 216.401 20H214.521C213.97 20 213.603 19.6331 213.603 19.0828V17.2483C213.603 16.7208 213.213 16.331 212.686 16.331H212.64C212.09 16.331 211.769 16.01 211.769 15.4596V13.5793C211.769 13.0518 211.379 12.662 210.852 12.662H210.806C210.255 12.662 209.934 12.341 209.934 11.7906V11.7448C209.934 11.2173 209.544 10.8275 209.017 10.8275H207.183C206.655 10.8275 206.265 11.2173 206.265 11.7448V17.2483C206.265 17.7757 206.655 18.1655 207.183 18.1655H209.063C209.613 18.1655 209.934 18.4865 209.934 19.0369V19.1286C209.934 19.679 209.613 20 209.063 20H203.468C202.917 20 202.596 19.679 202.596 19.1286V19.0369C202.596 18.4865 202.917 18.1655 203.468 18.1655H203.559C204.179 18.1655 204.431 17.9133 204.431 17.2941V4.36089C204.431 3.74175 204.179 3.4895 203.559 3.4895H203.468C202.917 3.4895 202.596 3.16847 202.596 2.61812V2.52639C202.596 1.97604 202.917 1.655 203.468 1.655H212.732C213.282 1.655 213.603 1.97604 213.603 2.52639V2.57225C213.603 3.09967 213.993 3.4895 214.521 3.4895H214.566C215.117 3.4895 215.438 3.81054 215.438 4.36089V8.12161C215.438 8.67197 215.117 8.993 214.566 8.993H214.521C213.993 8.993 213.603 9.38283 213.603 9.91025V9.95611C213.603 10.5065 213.282 10.8275 212.732 10.8275H212.686C212.159 10.8275 211.769 11.2173 211.769 11.7448C211.769 12.2722 212.159 12.662 212.686 12.662H212.732C213.282 12.662 213.603 12.983 213.603 13.5334V15.4138C213.603 15.9412 213.993 16.331 214.521 16.331H214.566C215.117 16.331 215.438 16.652 215.438 17.2024V17.2483C215.438 17.7757 215.828 18.1655 216.355 18.1655ZM207.183 8.993H212.686C213.213 8.993 213.603 8.60317 213.603 8.07575V4.40675C213.603 3.87933 213.213 3.4895 212.686 3.4895H207.183C206.655 3.4895 206.265 3.87933 206.265 4.40675V8.07575C206.265 8.60317 206.655 8.993 207.183 8.993ZM231.696 3.4895H231.742C232.292 3.4895 232.613 3.81054 232.613 4.36089V8.12161C232.613 8.67197 232.292 8.993 231.742 8.993H231.696C231.168 8.993 230.779 9.38283 230.779 9.91025V9.95611C230.779 10.5065 230.457 10.8275 229.907 10.8275H224.358C223.83 10.8275 223.441 11.2173 223.441 11.7448V17.2483C223.441 17.7757 223.83 18.1655 224.358 18.1655H226.238C226.788 18.1655 227.11 18.4865 227.11 19.0369V19.1286C227.11 19.679 226.788 20 226.238 20H220.643C220.093 20 219.772 19.679 219.772 19.1286V19.0369C219.772 18.4865 220.093 18.1655 220.643 18.1655H220.735C221.354 18.1655 221.606 17.9133 221.606 17.2941V4.36089C221.606 3.74175 221.354 3.4895 220.735 3.4895H220.643C220.093 3.4895 219.772 3.16847 219.772 2.61812V2.52639C219.772 1.97604 220.093 1.655 220.643 1.655H229.907C230.457 1.655 230.779 1.97604 230.779 2.52639V2.57225C230.779 3.09967 231.168 3.4895 231.696 3.4895ZM230.779 8.07575V4.40675C230.779 3.87933 230.389 3.4895 229.861 3.4895H224.358C223.83 3.4895 223.441 3.87933 223.441 4.40675V8.07575C223.441 8.60317 223.83 8.993 224.358 8.993H229.861C230.389 8.993 230.779 8.60317 230.779 8.07575ZM245.142 1.655H245.234C245.784 1.655 246.105 1.97604 246.105 2.52639V6.28712C246.105 6.83746 245.784 7.1585 245.234 7.1585H245.142C244.591 7.1585 244.27 6.83746 244.27 6.28712V6.24125C244.27 5.71383 243.881 5.324 243.353 5.324H243.307C242.757 5.324 242.436 5.00297 242.436 4.45262V4.40675C242.436 3.87933 242.046 3.4895 241.519 3.4895H237.85C237.322 3.4895 236.932 3.87933 236.932 4.40675V8.07575C236.932 8.60317 237.322 8.993 237.85 8.993H239.73C240.28 8.993 240.601 9.31404 240.601 9.86439V9.91025C240.601 10.4377 240.991 10.8275 241.519 10.8275H243.399C243.949 10.8275 244.27 11.1485 244.27 11.6989V11.7448C244.27 12.2722 244.66 12.662 245.188 12.662H245.234C245.784 12.662 246.105 12.983 246.105 13.5334V17.2941C246.105 17.8445 245.784 18.1655 245.234 18.1655H245.188C244.66 18.1655 244.27 18.5553 244.27 19.0828V19.1286C244.27 19.679 243.949 20 243.399 20H239.638C239.088 20 238.767 19.679 238.767 19.1286V19.0828C238.767 18.5553 238.377 18.1655 237.85 18.1655C237.322 18.1655 236.932 18.5553 236.932 19.0828V19.1286C236.932 19.679 236.611 20 236.061 20H235.969C235.419 20 235.098 19.679 235.098 19.1286V15.3679C235.098 14.8175 235.419 14.4965 235.969 14.4965H236.061C236.611 14.4965 236.932 14.8175 236.932 15.3679V15.4138C236.932 15.9412 237.322 16.331 237.85 16.331H237.896C238.446 16.331 238.767 16.652 238.767 17.2024V17.2483C238.767 17.7757 239.157 18.1655 239.684 18.1655H243.353C243.881 18.1655 244.27 17.7757 244.27 17.2483V13.5793C244.27 13.0518 243.881 12.662 243.353 12.662H241.473C240.922 12.662 240.601 12.341 240.601 11.7906V11.7448C240.601 11.2173 240.212 10.8275 239.684 10.8275H237.804C237.253 10.8275 236.932 10.5065 236.932 9.95611V9.91025C236.932 9.38283 236.543 8.993 236.015 8.993H235.969C235.419 8.993 235.098 8.67197 235.098 8.12161V4.36089C235.098 3.81054 235.419 3.4895 235.969 3.4895H236.015C236.543 3.4895 236.932 3.09967 236.932 2.57225V2.52639C236.932 1.97604 237.253 1.655 237.804 1.655H241.565C242.115 1.655 242.436 1.97604 242.436 2.52639V2.57225C242.436 3.09967 242.826 3.4895 243.353 3.4895C243.881 3.4895 244.27 3.09967 244.27 2.57225V2.52639C244.27 1.97604 244.591 1.655 245.142 1.655ZM262.31 14.4048H262.402C262.952 14.4048 263.365 14.8175 263.365 15.3679V15.4596C263.365 16.01 262.952 16.4227 262.402 16.4227H262.31C261.805 16.4227 261.438 16.6979 261.438 17.2483V19.0828C261.438 19.6331 261.072 20 260.521 20H249.468C248.918 20 248.597 19.679 248.597 19.1286V19.0369C248.597 18.4865 248.918 18.1655 249.468 18.1655H249.56C250.179 18.1655 250.431 17.9133 250.431 17.2941V4.36089C250.431 3.74175 250.179 3.4895 249.56 3.4895H249.468C248.918 3.4895 248.597 3.16847 248.597 2.61812V2.52639C248.597 1.97604 248.918 1.655 249.468 1.655H260.521C261.072 1.655 261.438 2.0219 261.438 2.57225V4.45262C261.438 5.00297 261.117 5.324 260.567 5.324H260.475C259.925 5.324 259.604 5.00297 259.604 4.45262V4.40675C259.604 3.87933 259.214 3.4895 258.687 3.4895H253.183C252.656 3.4895 252.266 3.87933 252.266 4.40675V8.07575C252.266 8.60317 252.656 8.993 253.183 8.993H255.018C255.545 8.993 255.935 8.60317 255.935 8.07575V8.02989C255.935 7.47954 256.256 7.1585 256.806 7.1585H256.898C257.448 7.1585 257.769 7.47954 257.769 8.02989V11.7906C257.769 12.341 257.448 12.662 256.898 12.662H256.806C256.256 12.662 255.935 12.341 255.935 11.7906V11.7448C255.935 11.2173 255.545 10.8275 255.018 10.8275H253.183C252.656 10.8275 252.266 11.2173 252.266 11.7448V17.2483C252.266 17.7757 252.656 18.1655 253.183 18.1655H258.687C259.214 18.1655 259.604 17.7757 259.604 17.2483V17.2024C259.604 16.652 259.925 16.331 260.475 16.331H260.521C261.072 16.331 261.347 15.9641 261.347 15.4596V15.3679C261.347 14.8175 261.76 14.4048 262.31 14.4048ZM275.816 1.655H275.908C276.458 1.655 276.779 1.97604 276.779 2.52639V6.28712C276.779 6.83746 276.458 7.1585 275.908 7.1585H275.816C275.266 7.1585 274.945 6.83746 274.945 6.28712V6.24125C274.945 5.71383 274.555 5.324 274.027 5.324H273.982C273.431 5.324 273.11 5.00297 273.11 4.45262V4.40675C273.11 3.87933 272.72 3.4895 272.193 3.4895H268.524C267.997 3.4895 267.607 3.87933 267.607 4.40675V8.07575C267.607 8.60317 267.997 8.993 268.524 8.993H270.404C270.955 8.993 271.276 9.31404 271.276 9.86439V9.91025C271.276 10.4377 271.666 10.8275 272.193 10.8275H274.073C274.624 10.8275 274.945 11.1485 274.945 11.6989V11.7448C274.945 12.2722 275.335 12.662 275.862 12.662H275.908C276.458 12.662 276.779 12.983 276.779 13.5334V17.2941C276.779 17.8445 276.458 18.1655 275.908 18.1655H275.862C275.335 18.1655 274.945 18.5553 274.945 19.0828V19.1286C274.945 19.679 274.624 20 274.073 20H270.313C269.762 20 269.441 19.679 269.441 19.1286V19.0828C269.441 18.5553 269.051 18.1655 268.524 18.1655C267.997 18.1655 267.607 18.5553 267.607 19.0828V19.1286C267.607 19.679 267.286 20 266.735 20H266.644C266.093 20 265.772 19.679 265.772 19.1286V15.3679C265.772 14.8175 266.093 14.4965 266.644 14.4965H266.735C267.286 14.4965 267.607 14.8175 267.607 15.3679V15.4138C267.607 15.9412 267.997 16.331 268.524 16.331H268.57C269.12 16.331 269.441 16.652 269.441 17.2024V17.2483C269.441 17.7757 269.831 18.1655 270.358 18.1655H274.027C274.555 18.1655 274.945 17.7757 274.945 17.2483V13.5793C274.945 13.0518 274.555 12.662 274.027 12.662H272.147C271.597 12.662 271.276 12.341 271.276 11.7906V11.7448C271.276 11.2173 270.886 10.8275 270.358 10.8275H268.478C267.928 10.8275 267.607 10.5065 267.607 9.95611V9.91025C267.607 9.38283 267.217 8.993 266.689 8.993H266.644C266.093 8.993 265.772 8.67197 265.772 8.12161V4.36089C265.772 3.81054 266.093 3.4895 266.644 3.4895H266.689C267.217 3.4895 267.607 3.09967 267.607 2.57225V2.52639C267.607 1.97604 267.928 1.655 268.478 1.655H272.239C272.789 1.655 273.11 1.97604 273.11 2.52639V2.57225C273.11 3.09967 273.5 3.4895 274.027 3.4895C274.555 3.4895 274.945 3.09967 274.945 2.57225V2.52639C274.945 1.97604 275.266 1.655 275.816 1.655Z" fill="white"/>
<path d="M7.72641 10.9684C7.72641 10.3866 7.25387 9.91494 6.67097 9.91494H4.11752C3.67216 9.91494 3.31113 9.55457 3.31113 9.11004C3.31113 8.66551 2.95009 8.30515 2.50473 8.30515H1.65556C1.21002 8.30515 0.848834 7.94463 0.848834 7.49992V7.11831C0.848834 6.88435 0.658816 6.69468 0.424417 6.69468C0.190018 6.69468 0 6.50502 0 6.27106V3.55916C0 3.32519 0.190018 3.13553 0.424417 3.13553C0.658816 3.13553 0.848834 2.94586 0.848834 2.7119V2.3303C0.848834 1.88558 1.21002 1.52506 1.65556 1.52506H3.48157C3.90349 1.52506 4.24552 1.18367 4.24552 0.762532C4.24552 0.341397 4.58755 0 5.00947 0H12.9056C13.3276 0 13.6696 0.341397 13.6696 0.762532C13.6696 1.18367 14.0116 1.52506 14.4335 1.52506H16.3438C16.7893 1.52506 17.1505 1.88558 17.1505 2.3303V2.71156C17.1505 2.94571 17.3407 3.13553 17.5752 3.13553C17.8098 3.13553 18 3.32534 18 3.55949V6.27072C18 6.50487 17.8098 6.69468 17.5752 6.69468C17.3407 6.69468 17.1505 6.8845 17.1505 7.11865V7.49992C17.1505 7.94463 16.7893 8.30515 16.3438 8.30515H15.4953C15.0499 8.30515 14.6889 8.66551 14.6889 9.11004C14.6889 9.55457 14.3278 9.91494 13.8825 9.91494H11.4139C10.831 9.91494 10.3585 10.3866 10.3585 10.9684V12.1671C10.3585 12.7489 10.831 13.2206 11.4139 13.2206H12.4388C12.8841 13.2206 13.2452 13.581 13.2452 14.0255C13.2452 14.47 13.6064 14.8304 14.0517 14.8304C14.4973 14.8304 14.8586 15.1909 14.8586 15.6356V17.4582C14.8586 17.9262 15.2387 18.3055 15.7075 18.3055C16.1763 18.3055 16.5563 18.6848 16.5563 19.1527C16.5563 19.6207 16.1763 20 15.7075 20H14.2157C13.6328 20 13.1603 19.5283 13.1603 18.9465V15.9686C13.1603 15.3868 12.6878 14.9151 12.1049 14.9151H5.89515C5.31224 14.9151 4.8397 15.3868 4.8397 15.9686V18.9465C4.8397 19.5283 4.36716 20 3.78426 20H2.29253C1.82373 20 1.44369 19.6207 1.44369 19.1527C1.44369 18.6848 1.82373 18.3055 2.29253 18.3055C2.76132 18.3055 3.14136 17.9262 3.14136 17.4582V15.6356C3.14136 15.1909 3.50271 14.8304 3.94826 14.8304C4.39362 14.8304 4.75482 14.47 4.75482 14.0255C4.75482 13.581 5.11585 13.2206 5.56121 13.2206H6.67097C7.25387 13.2206 7.72641 12.7489 7.72641 12.1671V10.9684ZM4.75482 2.373C4.75482 2.79413 4.41279 3.13553 3.99087 3.13553H2.75379C2.17088 3.13553 1.69834 3.60719 1.69834 4.18901V5.38702C1.69834 5.96885 2.17088 6.44051 2.75379 6.44051H3.86321C4.35563 6.44051 4.75482 6.83895 4.75482 7.33046C4.75482 7.82197 5.15401 8.22042 5.64643 8.22042H7.00457C7.35635 8.22042 7.64153 7.93577 7.64153 7.58464C7.64153 7.23351 7.35635 6.94886 7.00457 6.94886H6.62259C6.05985 6.94886 5.60365 6.49351 5.60365 5.93182V3.8984C5.60365 3.3367 6.05985 2.88135 6.62259 2.88135H7.0049C7.3565 2.88135 7.64153 2.59685 7.64153 2.24591C7.64153 1.89496 7.3565 1.61046 7.0049 1.61046H5.51877C5.09685 1.61046 4.75482 1.95186 4.75482 2.373ZM10.2736 2.24591C10.2736 2.59685 10.5586 2.88135 10.9102 2.88135H11.3409C11.9238 2.88135 12.3963 3.35301 12.3963 3.93484V5.89538C12.3963 6.4772 11.9238 6.94886 11.3409 6.94886H10.9106C10.5588 6.94886 10.2736 7.23351 10.2736 7.58464C10.2736 7.93577 10.5588 8.22042 10.9106 8.22042H12.3536C12.846 8.22042 13.2452 7.82197 13.2452 7.33046C13.2452 6.83895 13.6444 6.44051 14.1368 6.44051H15.2462C15.8291 6.44051 16.3017 5.96885 16.3017 5.38702V4.18901C16.3017 3.60719 15.8291 3.13553 15.2462 3.13553H14.0091C13.5872 3.13553 13.2452 2.79413 13.2452 2.373C13.2452 1.95186 12.9031 1.61046 12.4812 1.61046H10.9102C10.5586 1.61046 10.2736 1.89496 10.2736 2.24591Z" fill="white"/>
</svg>
